<?xml version="1.0" encoding="UTF-8" standalone="no"?>
<!-- Created with Inkscape (http://www.inkscape.org/) -->

<svg
   viewBox="0 0 512 512"
   version="1.1"
   id="svg1"
   xml:space="preserve"
   sodipodi:docname="pipe.svg"
   inkscape:version="1.3.2 (091e20ef0f, 2023-11-25, custom)"
   xmlns:inkscape="http://www.inkscape.org/namespaces/inkscape"
   xmlns:sodipodi="http://sodipodi.sourceforge.net/DTD/sodipodi-0.dtd"
   xmlns:xlink="http://www.w3.org/1999/xlink"
   xmlns="http://www.w3.org/2000/svg"
   xmlns:svg="http://www.w3.org/2000/svg"><sodipodi:namedview
     id="namedview1"
     pagecolor="#ffffff"
     bordercolor="#000000"
     borderopacity="0.25"
     inkscape:showpageshadow="2"
     inkscape:pageopacity="0.0"
     inkscape:pagecheckerboard="0"
     inkscape:deskcolor="#d1d1d1"
     inkscape:document-units="px"
     inkscape:zoom="0.7552839"
     inkscape:cx="36.41015"
     inkscape:cy="123.79451"
     inkscape:window-width="2560"
     inkscape:window-height="1384"
     inkscape:window-x="0"
     inkscape:window-y="0"
     inkscape:window-maximized="0"
     inkscape:current-layer="layer1"
     showguides="true" /><defs
     id="defs1"><rect
   x="-1210.7253"
   y="-1793.9509"
   width="2587.8801"
   height="700.26239"
   id="rect12" /><linearGradient
   id="linearGradient9"
   inkscape:collect="always"><stop
     style="stop-color:#454b54;stop-opacity:1;"
     offset="0"
     id="stop10" /><stop
     style="stop-color:#616b72;stop-opacity:1;"
     offset="0.46333462"
     id="stop12" /><stop
     style="stop-color:#454b54;stop-opacity:1;"
     offset="1"
     id="stop11" /></linearGradient><inkscape:path-effect
   effect="fillet_chamfer"
   id="path-effect4"
   is_visible="true"
   lpeversion="1"
   nodesatellites_param="F,0,0,1,0,10.583333,0,1 @ F,0,0,1,0,10.583333,0,1 @ F,0,0,1,0,10.583333,0,1 @ F,0,0,1,0,10.583333,0,1 @ F,0,0,1,0,10.583333,0,1 @ F,0,0,1,0,10.583333,0,1"
   radius="40"
   unit="px"
   method="auto"
   mode="F"
   chamfer_steps="1"
   flexible="false"
   use_knot_distance="true"
   apply_no_radius="true"
   apply_with_radius="true"
   only_selected="false"
   hide_knots="false" /><inkscape:path-effect
   effect="fillet_chamfer"
   id="path-effect3"
   is_visible="true"
   lpeversion="1"
   nodesatellites_param="C,0,0,1,0,35.71875,0,1 @ C,0,0,1,0,35.71875,0,1 @ C,0,0,1,0,35.71875,0,1 @ C,0,0,1,0,35.71875,0,1 @ C,0,0,1,0,35.71875,0,1 @ C,0,0,1,0,35.71875,0,1"
   radius="135"
   unit="px"
   method="auto"
   mode="F"
   chamfer_steps="1"
   flexible="false"
   use_knot_distance="true"
   apply_no_radius="true"
   apply_with_radius="true"
   only_selected="false"
   hide_knots="false" />























<rect
   x="-1210.7253"
   y="-1793.9509"
   width="2587.8801"
   height="700.26239"
   id="rect12-8" /><rect
   x="-1210.7253"
   y="-1793.9509"
   width="2587.8801"
   height="700.26239"
   id="rect12-4" /><linearGradient
   inkscape:collect="always"
   xlink:href="#linearGradient9"
   id="linearGradient1"
   gradientUnits="userSpaceOnUse"
   gradientTransform="matrix(3.986016,0,0,3.986016,418.03376,893.91243)"
   x1="-22.131531"
   y1="-215.51608"
   x2="-21.415457"
   y2="-104.13899" /></defs><g
     inkscape:label="Layer 1"
     inkscape:groupmode="layer"
     id="layer1"><g
       id="g5"
       transform="translate(5.4905354,16.285072)"><rect
         style="fill:url(#linearGradient1);stroke-width:29.551;stroke-miterlimit:3;paint-order:fill markers stroke"
         id="rect4-6"
         width="351.2934"
         height="274.51511"
         x="155.21606"
         y="104.34977" /><g
         id="g1"
         transform="matrix(1.0800803,0,0,1.0800803,-5.4905338,-42.484309)"><path
           sodipodi:type="star"
           style="fill:#535b65;fill-opacity:1;stroke-width:8.99999;stroke-miterlimit:3;paint-order:fill markers stroke"
           id="path1-29"
           inkscape:flatsided="true"
           sodipodi:sides="6"
           sodipodi:cx="-150.49478"
           sodipodi:cy="-131.7301"
           sodipodi:r1="49.587086"
           sodipodi:r2="24.793539"
           sodipodi:arg1="0.52359878"
           sodipodi:arg2="1.0471976"
           inkscape:rounded="0"
           inkscape:randomized="0"
           d="m -107.55111,-106.93656 -42.94367,24.793543 -42.94368,-24.793543 0,-49.58709 42.94368,-24.79354 42.94367,24.79354 z"
           inkscape:transform-center-x="2.2716675e-05"
           inkscape:transform-center-y="-47.789711"
           transform="matrix(3.8550177,0,0,3.8550177,745.70868,769.09804)" /><path
           id="path1-7-1"
           style="fill:#454b54;fill-opacity:1;stroke-width:34.6952;stroke-miterlimit:3;paint-order:fill markers stroke"
           d="M 331.09738,356.85567 165.5487,452.43525 1.3464505e-4,356.85567 331.09738,165.69668 Z"
           sodipodi:nodetypes="ccccc"
           inkscape:transform-center-y="-47.789716"
           inkscape:transform-center-x="-1.3319838e-05" /></g><g
         id="g2"
         transform="matrix(1.0800803,0,0,1.0800803,-5.4905338,-42.484309)"><g
           id="g4"><path
             sodipodi:type="star"
             style="fill:#c92a2a;fill-opacity:1;stroke-width:8.99999;stroke-miterlimit:3;paint-order:fill markers stroke"
             id="path1-0-2"
             inkscape:flatsided="true"
             sodipodi:sides="6"
             sodipodi:cx="-150.49478"
             sodipodi:cy="-131.7301"
             sodipodi:r1="49.587086"
             sodipodi:r2="24.793539"
             sodipodi:arg1="0.52359878"
             sodipodi:arg2="1.0471976"
             inkscape:rounded="0"
             inkscape:randomized="0"
             d="m -107.55111,-106.93656 -42.94367,24.793543 -42.94368,-24.793543 0,-49.58709 42.94368,-24.79354 42.94367,24.79354 z"
             inkscape:transform-center-y="-33.211491"
             transform="matrix(2.6790419,0,0,2.6790419,568.7306,614.18654)"
             inkscape:transform-center-x="-2.9990114e-05" /><path
             id="path1-0-4-7"
             style="fill:#bd2525;fill-opacity:1;stroke-width:24.1114;stroke-miterlimit:3;paint-order:fill markers stroke"
             inkscape:transform-center-y="-33.211435"
             d="M 50.500852,327.69914 V 194.85321 L 165.5487,128.43027 280.59666,194.85321 Z"
             sodipodi:nodetypes="ccccc"
             inkscape:transform-center-x="-1.1997312e-05" /></g></g><g
         id="g3"
         transform="matrix(1.0800803,0,0,1.0800803,-5.4905338,-42.484309)"><circle
           style="fill:#6a1616;fill-opacity:1;stroke-width:48.6172;stroke-miterlimit:3;paint-order:fill markers stroke"
           id="path2-09"
           cx="167.63586"
           cy="261.85214"
           r="72.994461" /><path
           id="path2-4-3"
           style="fill:#531111;fill-opacity:1;stroke-width:48.6172;stroke-miterlimit:3;paint-order:fill markers stroke"
           d="m 167.63559,188.85769 c -3.65153,0.0119 -7.29701,0.29732 -10.90577,0.85499 -1.20821,0.23217 -2.41045,0.49454 -3.60539,0.78652 -2.38995,0.44834 -4.75597,1.01537 -7.08936,1.69979 -1.36593,0.46493 -2.71789,0.97042 -4.05403,1.51494 -2.07842,0.75182 -4.1216,1.59704 -6.12332,2.53387 -1.36167,0.68951 -2.70136,1.42208 -4.01713,2.19587 -1.87101,1.03498 -3.69571,2.15168 -5.4687,3.34675 -1.2919,0.90402 -2.55424,1.84921 -3.78484,2.83462 -1.63144,1.27851 -3.20769,2.62579 -4.72453,4.03833 -1.17575,1.10042 -2.31479,2.23951 -3.41527,3.41521 -1.4126,1.51684 -2.75987,3.09314 -4.03827,4.72452 -0.98369,1.23084 -1.92733,2.49307 -2.82935,3.78485 -1.20104,1.77968 -2.32296,3.61143 -3.36256,5.48984 -0.76407,1.3022 -1.4877,2.6278 -2.16957,3.97484 -0.94998,2.0237 -1.80556,4.08986 -2.565435,6.19203 -0.536588,1.31547 -1.034917,2.64628 -1.493978,3.99065 -0.706863,2.4002 -1.29024,4.83516 -1.747169,7.29523 -0.271848,1.12026 -0.51586,2.24668 -0.733397,3.37838 -0.562648,3.62066 -0.851967,7.27865 -0.865234,10.94279 0.01185,3.33099 0.248157,6.65724 0.713023,9.95566 0.201369,1.15082 0.429981,2.29667 0.68643,3.43642 0.363648,2.129 0.821288,4.24088 1.372387,6.32919 0.401553,1.30351 0.839648,2.59565 1.314464,3.87463 0.616958,1.88387 1.311209,3.74173 2.079779,5.56909 0.5893,1.28657 1.21609,2.55578 1.87925,3.80593 2.78653,5.56056 6.27239,10.74231 10.37268,15.41915 1.80728,2.05544 3.64347,4.0359 5.59123,5.72657 0,0 -2.51349,-4.43899 -3.41639,-6.81396 -4.47578,-11.77296 -9.78084,-23.6838 -9.78143,-36.49712 1.2e-4,-40.31354 32.68072,-72.99413 72.99413,-72.99419 16.89673,4.7e-4 32.939,5.87049 45.70323,16.12655 -13.83675,-17.00985 -34.58714,-26.89853 -56.51406,-26.93206 z"
           sodipodi:nodetypes="scccccccccccccccccccccccccccacccss" /></g></g></g></svg>
